<svg width="100%" height="115" viewBox="0 0 66 115" fill="none" xmlns="http://www.w3.org/2000/svg">
<path d="M11.8339 79.0439C11.6734 79.1034 11.4922 79.135 11.3548 79.2285C10.179 80.0218 8.85978 80.5125 7.56728 81.0653C6.78303 81.4005 6.0231 81.8002 5.27532 82.212C4.61752 82.574 4.09712 83.1061 3.60225 83.6697C3.09522 84.2467 2.5809 84.8249 2.00943 85.3339C1.69329 85.6158 1.27138 85.8186 0.864053 85.9498C0.337571 86.1199 -0.094072 85.7397 0.0177904 85.1979C0.108983 84.7557 0.280424 84.3002 0.528466 83.926C0.989291 83.2324 1.56198 82.6129 2.03739 81.9289C2.81557 80.8077 3.87947 80.0619 5.08929 79.4958C6.65901 78.7621 8.24454 78.0599 9.80818 77.3116C10.5596 76.9521 11.2831 76.5317 12.0029 76.1114C12.6327 75.7434 13.2723 75.4032 13.9969 75.2732C14.3033 75.2186 14.448 75.0716 14.5149 74.7728C14.6207 74.3027 14.7751 73.8435 14.8943 73.377C15.2408 72.0213 16.0469 71.635 17.1449 71.5014C17.9912 71.3981 18.8496 71.386 19.7031 71.3653C20.9968 71.3338 22.1118 71.8318 23.0785 72.6457C23.6621 73.1377 24.1752 73.7123 24.7321 74.2358C24.8804 74.3755 25.0725 74.4691 25.2938 74.6161C25.2573 72.9676 25.2245 71.4188 25.1893 69.8457C23.4274 69.0257 21.8224 67.9178 20.3488 66.6399C19.0198 65.4883 17.7601 64.2565 16.4883 63.0406C15.7855 62.3688 15.1216 61.2123 14.8359 60.2818C13.8243 59.887 13.1166 59.1642 12.5379 58.241C12.1634 57.6434 11.8071 57.0433 11.5287 56.4006C11.3475 55.984 11.187 55.5503 11.0885 55.1081C10.911 54.3161 10.8198 53.5046 10.6326 52.715C10.331 51.4395 9.9784 50.175 9.65498 48.9043C9.458 48.1317 9.3741 47.3519 9.3741 46.5453C9.3741 45.6828 9.21725 44.8191 9.1212 43.9578C9.06162 43.4245 8.98502 42.8937 8.92179 42.3616C8.84762 41.7324 8.81722 41.0946 8.70293 40.4726C8.40747 38.8594 8.41111 37.2389 8.53514 35.6136C8.62511 34.4365 8.72846 33.2606 8.84519 32.0871C8.87559 31.7846 8.97286 31.4882 9.04338 31.1894C9.17956 30.6112 9.31574 30.0342 9.45557 29.4572C9.53217 29.1401 9.39842 28.9627 9.10539 28.8486C8.55216 28.6348 7.97096 28.4623 7.46636 28.1622C6.74655 27.7346 6.15806 27.137 5.72763 26.4032C5.52823 26.0631 5.31545 25.729 5.12698 25.3828C4.8607 24.8921 4.72817 24.3661 4.75613 23.8012C4.77316 23.4574 4.71723 23.1039 4.77802 22.7711C4.85097 22.369 5.00539 21.9791 5.14036 21.5891C5.28991 21.1567 5.39691 20.6938 5.63036 20.31C6.06201 19.6018 6.54958 18.9288 7.30344 18.4988C7.84816 18.1878 8.43422 18.0177 9.03609 17.9169C9.36802 17.861 9.47259 17.6824 9.55406 17.414C9.90788 16.2454 10.2702 15.0792 10.6265 13.9106C10.7347 13.5534 10.8417 13.1939 10.9317 12.8319C11.1931 11.7726 11.6965 10.8457 12.3336 9.95774C13.1215 8.85716 13.7489 7.63997 14.555 6.55397C15.1788 5.71456 15.9217 4.94683 16.7047 4.25077C17.2871 3.73207 17.9 3.21215 18.6562 2.91089C19.308 2.65093 19.9415 2.35574 20.6467 2.26585C21.409 2.16866 22.1678 2.04476 22.9313 1.96823C23.346 1.92693 23.7679 1.97309 24.1849 1.95001C24.619 1.92571 25.0057 1.78601 25.2355 1.37421C25.2671 1.31711 25.3072 1.26245 25.3498 1.21143C26.0769 0.340442 26.9657 -0.0677192 28.1342 0.0926298C28.736 0.175234 29.3671 0.105992 29.9799 0.045254C31.1107 -0.0677192 32.2123 0.0331064 33.309 0.322221C33.8148 0.455845 34.3474 0.491073 34.8678 0.573677C35.0623 0.605261 35.2739 0.606476 35.4465 0.68665C36.0654 0.976979 36.739 1.12761 37.3555 1.38635C37.9039 1.61595 38.4644 2.03625 38.5677 2.81006C38.9204 2.81006 39.2487 2.78698 39.5721 2.8137C40.6992 2.90846 41.7741 3.15991 42.7456 3.79523C43.497 4.286 44.3043 4.6893 45.0679 5.16306C45.3816 5.35742 45.6576 5.61981 45.9288 5.8737C46.5513 6.458 47.1787 7.03866 47.7721 7.65211C48.5892 8.49881 49.1229 9.53986 49.6737 10.5651C50.2671 11.6681 50.8775 12.7638 51.4246 13.8899C51.7578 14.5775 51.9766 15.3197 52.2636 16.0304C52.4752 16.5576 52.7135 17.0751 52.9664 17.6594C53.4345 17.3362 53.8941 17.4103 54.3416 17.5221C54.9799 17.6824 55.6414 17.8063 56.2347 18.0748C57.0153 18.4271 57.6634 18.9907 58.1242 19.7378C58.889 20.9781 59.041 22.2815 58.5376 23.6554C58.3735 24.1049 58.2531 24.5762 58.0452 25.0038C57.4664 26.1919 56.4305 26.7798 55.2 27.1199C54.592 27.2876 54.0193 27.5791 53.4114 27.7492C52.2928 28.0614 51.1596 28.3201 50.0336 28.6105C49.7589 28.6809 49.495 28.7902 49.2226 28.8704C48.0493 29.2154 46.8796 29.5738 45.7002 29.8945C44.4065 30.2455 43.0775 30.3925 41.7473 30.5395C41.2488 30.5942 40.7576 30.7242 40.2615 30.8055C39.5684 30.9197 38.8778 31.057 38.1799 31.1202C37.2059 31.2088 36.2259 31.2344 35.2484 31.2914C33.8768 31.3716 32.5065 31.453 31.1362 31.5393C30.065 31.6061 28.995 31.696 27.9226 31.7433C27.2247 31.7737 26.5231 31.7458 25.8239 31.7458C24.6847 31.7458 23.5466 31.7458 22.4073 31.7506C21.9671 31.7531 21.5282 31.7859 21.088 31.7859C20.7597 31.7859 20.4315 31.7555 20.1032 31.7446C19.9135 31.7385 19.7238 31.7421 19.5353 31.7433C19.4271 31.7433 19.314 31.764 19.2095 31.7446C18.1942 31.5599 17.1534 31.4554 16.171 31.1578C14.7873 30.7387 13.3258 30.6075 11.9931 30.005C11.8448 29.9382 11.6576 29.9552 11.3961 29.9224C11.3341 30.6403 11.2308 31.3109 11.2271 31.9814C11.2198 33.3395 11.1724 34.7086 11.3195 36.0545C11.4521 37.262 11.221 38.4646 11.4509 39.6685C11.7135 41.0412 11.8886 42.4333 12.0515 43.8218C12.178 44.8968 12.3239 45.9695 12.2801 47.064C12.2546 47.7126 12.4078 48.3735 12.5135 49.0234C12.668 49.9733 12.8431 50.9196 13.0242 51.8647C13.1847 52.7017 13.3428 53.5411 13.5434 54.3696C13.8571 55.6572 14.3131 56.8853 15.1897 57.9179C15.3867 58.1499 15.6056 58.3868 15.7199 58.6601C15.856 58.9893 15.8913 59.3598 15.8804 59.7364C16.284 60.2284 16.6743 60.7325 17.095 61.2111C17.6629 61.8562 18.3073 62.4113 19.032 62.8839C19.9147 63.4597 20.7452 64.1181 21.6413 64.6732C22.7015 65.3316 23.8104 65.911 24.8914 66.5367C25.4239 66.8452 25.9528 67.1392 26.5693 67.2704C28.3871 67.6567 30.1987 68.0697 32.0141 68.4669C32.1636 68.4997 32.3217 68.4973 32.4761 68.4985C33.658 68.5119 34.841 68.5495 36.0217 68.5204C36.6272 68.5058 37.2303 68.3758 37.8321 68.2859C38.6748 68.1596 39.5149 68.0211 40.3563 67.8875C40.4208 67.8778 40.4949 67.879 40.5472 67.8474C41.6744 67.1732 42.9705 66.8282 44.0368 66.0313C44.3858 65.7701 44.798 65.5964 45.1786 65.3778C45.7804 65.0316 46.2607 64.5602 46.6717 63.999C47.0085 63.5398 47.3684 63.0819 47.794 62.7089C48.2742 62.2874 48.4615 61.7274 48.6524 61.182C49.0281 60.1033 49.3138 58.9978 49.7625 57.9385C49.9874 57.4065 50.0154 56.7845 50.0957 56.199C50.2464 55.1118 50.3668 54.0221 50.5078 52.9337C50.6854 51.5647 50.9079 50.1993 51.0368 48.8254C51.1097 48.0443 51.0526 47.2498 51.0222 46.4627C50.9918 45.6597 51.1279 44.881 51.359 44.123C51.4952 43.676 51.7955 43.286 52.2709 43.1646C52.8971 43.0042 53.3482 43.2885 53.522 43.9882C53.657 44.5312 53.7519 45.1094 53.7227 45.6633C53.6217 47.5499 53.5148 49.4364 53.1646 51.3011C53.0551 51.8793 53.0928 52.4842 53.0114 53.0698C52.9032 53.8496 52.767 54.6283 52.6004 55.3985C52.4192 56.2342 52.2174 57.0676 51.9742 57.8875C51.8003 58.4755 51.5341 59.0355 51.3249 59.6137C51.072 60.3098 50.768 60.9973 50.6039 61.7152C50.3169 62.975 49.6494 64.0221 48.8785 65.0061C48.2998 65.7458 47.6553 66.4455 46.972 67.0906C46.4832 67.5534 45.8838 67.9008 45.3281 68.292C44.9013 68.592 44.4782 68.8982 44.0308 69.1642C43.7061 69.3573 43.6283 69.5918 43.7244 69.938C43.7694 70.1008 43.7669 70.2781 43.7718 70.4506C43.79 71.2099 43.8034 71.9703 43.8216 72.8364C44.995 72.0286 46.279 72.2801 47.4584 72.0153C47.8438 71.929 48.2378 71.8743 48.6293 71.8185C49.4537 71.7018 50.2829 71.4832 51.1012 71.5172C51.7541 71.5439 52.4715 71.7626 53.0138 72.1185C53.4333 72.3943 53.8345 72.9215 53.6996 73.5799C53.6692 73.7281 53.6607 73.8799 53.6412 74.0427C54.5264 74.1836 55.3836 74.3039 56.2335 74.4618C56.5545 74.5213 56.8645 74.6525 57.1722 74.7716C58.2798 75.1979 59.4045 75.6413 60.3615 76.324C61.7658 77.3238 63.1519 78.3758 64.2462 79.7424C64.5344 80.1007 64.8384 80.4469 65.1241 80.8065C65.2177 80.9243 65.3041 81.0604 65.3539 81.2013C65.4804 81.5657 65.5497 81.9399 65.2299 82.2509C64.8931 82.5788 64.4833 82.4367 64.1806 82.2654C63.6699 81.9763 63.214 81.5876 62.7495 81.2232C61.7695 80.4542 60.8186 79.6452 59.8143 78.909C59.396 78.6017 58.8769 78.428 58.3966 78.2106C57.5041 77.8073 56.608 77.41 55.707 77.0249C55.5331 76.9508 55.3325 76.9423 55.0018 76.8731C55.1793 77.2035 55.2814 77.4307 55.4164 77.636C55.8845 78.349 56.3624 79.056 56.8402 79.763C56.9497 79.9246 57.0567 80.0947 57.1953 80.2295C57.8689 80.8843 58.14 81.6556 58.0719 82.6044C58.0051 83.5397 58.0513 84.4836 58.0549 85.4238C58.0573 86.1308 58.0707 86.839 58.0804 87.546C58.0926 88.5033 58.0464 89.4653 58.1364 90.4153C58.2227 91.3264 58.202 92.2387 58.2762 93.1497C58.3504 94.0596 58.3382 94.9767 58.3954 95.889C58.4513 96.7782 58.5571 97.6638 58.6227 98.553C58.686 99.4046 58.7467 100.257 58.7698 101.111C58.7966 102.096 58.799 103.083 58.7759 104.068C58.7662 104.48 58.7395 104.922 58.585 105.293C58.3832 105.776 58.3795 106.272 58.3151 106.765C58.2324 107.395 58.4841 107.965 58.686 108.542C58.7346 108.682 58.8367 108.898 58.7796 108.964C58.4707 109.323 58.6665 109.848 58.3492 110.187C58.1133 110.438 57.8604 110.673 57.588 110.942C57.3935 110.766 57.2366 110.625 57.0019 110.414C56.946 110.651 56.9022 110.836 56.8585 111.02C56.4973 110.993 56.1909 110.879 55.9405 110.589C55.7921 110.418 55.5672 110.314 55.2681 110.104C55.1805 109.321 55.0407 108.423 54.9896 107.52C54.9373 106.598 55.4565 105.817 55.8286 104.887C53.0491 104.779 50.3546 104.997 47.6639 104.932C44.9585 104.866 42.2556 104.889 39.4858 104.938C39.5028 105.232 39.5259 105.444 39.5247 105.658C39.521 106.142 39.5453 106.629 39.4845 107.105C39.4067 107.7 38.8061 108.146 38.2224 108.112C37.5038 108.072 36.9239 107.524 36.8971 106.811C36.8716 106.131 36.8898 105.45 36.891 104.769C36.8935 103.83 36.8862 102.891 36.9093 101.952C36.9239 101.382 36.9774 100.814 37.0333 100.246C37.1537 99.0243 37.3555 97.8047 37.392 96.5802C37.426 95.4821 37.5002 94.3937 37.6461 93.3064C37.7191 92.7647 37.7969 92.2229 37.8662 91.6811C38.0413 90.2987 38.2066 88.9199 38.1142 87.5144C38.0486 86.5098 38.1094 85.4943 38.1629 84.486C38.1799 84.1714 38.1227 83.926 37.9343 83.6964C37.4199 83.0708 37.6266 82.4719 38.0048 81.884C38.6225 80.9219 39.2499 79.9647 39.8627 79.0002C39.9527 78.858 39.9891 78.6831 40.0718 78.4681C39.9065 78.4316 39.7897 78.3891 39.6706 78.383C38.5957 78.3332 37.5221 78.3187 36.4521 78.4839C36.1943 78.524 35.9256 78.4839 35.6618 78.4912C34.1711 78.5288 32.7436 78.2312 31.3563 77.704C30.9866 77.5631 30.6121 77.4258 30.2291 77.3298C29.3172 77.1027 28.488 76.714 27.6976 76.1224C27.57 76.1807 27.4229 76.2475 27.3037 76.3022C27.5688 76.5973 27.7791 76.9156 28.0673 77.1343C28.4795 77.4477 28.7859 77.8242 29.0667 78.2506C29.2309 78.5009 29.5239 78.6624 29.7124 78.9005C30.2693 79.6015 30.8055 80.3182 31.3441 81.0324C31.7928 81.6265 32.2159 82.2399 32.6852 82.8169C33.2275 83.4826 33.5485 84.2091 33.63 85.0752C33.8221 87.1294 34.0519 89.1799 34.2854 91.2304C34.3936 92.1852 34.5833 93.1315 34.6684 94.0875C34.7924 95.4821 34.8471 96.8815 34.9492 98.2773C35.0611 99.8091 35.1195 101.349 35.3432 102.865C35.511 104 35.4794 105.131 35.5353 106.262C35.59 107.365 35.6691 108.459 35.9694 109.524C36.0764 109.901 36.0046 110.214 35.8162 110.528C35.5353 110.998 34.9286 111.077 34.627 110.629C34.4021 110.294 34.2513 109.892 34.1419 109.498C33.8549 108.473 33.8428 107.412 33.799 106.358C33.7954 106.274 33.7479 106.193 33.7188 106.105C33.3832 106.105 33.0585 106.087 32.7363 106.108C30.6596 106.241 28.584 106.143 26.5073 106.121C24.7783 106.103 23.0481 106.283 21.3203 106.261C20.153 106.246 19.0003 106.388 17.8404 106.413C17.0707 106.428 16.2998 106.421 15.5314 106.451C14.0419 106.511 12.5525 106.595 11.063 106.658C10.6095 106.677 10.1547 106.66 9.6416 106.66C9.60877 107.022 9.54068 107.348 9.55527 107.67C9.62823 109.356 9.70118 111.042 9.82034 112.724C9.85803 113.255 9.6489 113.666 9.4045 114.08C9.23549 114.368 8.34546 114.691 8.0427 114.618C7.73021 114.543 7.10646 113.644 7.12835 113.264C7.15753 112.76 7.23413 112.259 7.2475 111.755C7.25845 111.385 7.22319 111.009 7.1709 110.641C6.98244 109.304 7.11132 107.967 7.15023 106.63C7.16118 106.24 7.13929 105.85 7.13078 105.46C7.10646 104.345 7.0943 103.229 7.05053 102.115C7.02499 101.464 6.92651 100.815 6.89976 100.164C6.85355 99 6.80613 97.8351 6.81708 96.6701C6.8268 95.4906 6.90462 94.3123 6.95569 93.1339C7.0104 91.8839 7.08944 90.634 7.11862 89.384C7.14415 88.3101 7.10524 87.2363 7.11254 86.1624C7.11619 85.7251 7.10403 85.2732 7.21103 84.8565C7.34842 84.3208 7.6451 83.8604 8.13511 83.5312C9.22455 82.8011 10.0635 81.8075 10.8648 80.7919C11.2685 80.2793 11.5724 79.6889 11.9226 79.1338C11.8934 79.1046 11.8643 79.0767 11.8363 79.0475L11.8339 79.0439ZM9.13457 21.215C8.49501 21.3911 8.32479 21.9463 8.05851 22.4176C7.56485 23.2922 7.54175 24.1632 8.07918 25.033C8.47313 25.6719 8.93517 26.2052 9.76319 26.2502C9.91275 26.2587 10.0562 26.3389 10.2058 26.3729C11.3244 26.6292 12.2619 27.352 13.4072 27.5646C14.6754 27.8002 15.9217 28.1489 17.1789 28.438C17.3698 28.4817 17.5984 28.4161 17.765 28.4951C18.6538 28.9142 19.6107 28.7052 20.5312 28.8085C21.0649 28.868 21.617 28.7441 22.1605 28.7441C23.5648 28.7441 24.9692 28.7915 26.3735 28.7696C27.4034 28.7538 28.4308 28.6554 29.4595 28.6007C29.7671 28.585 30.0772 28.6044 30.3848 28.5862C31.7636 28.506 33.1424 28.4125 34.5225 28.3371C35.0866 28.3068 35.6569 28.3408 36.2186 28.2886C36.9178 28.2242 37.6121 28.0978 38.31 28.0055C38.9812 27.9168 39.656 27.8524 40.3259 27.7504C40.8196 27.6751 41.3059 27.5536 41.7972 27.4576C42.8842 27.2475 44.0198 27.273 45.0485 26.7786C45.1056 26.7519 45.1798 26.764 45.243 26.7482C45.8108 26.6049 46.3811 26.4688 46.9453 26.3133C47.7721 26.0862 48.5807 25.7606 49.4221 25.6319C50.7145 25.4326 51.9523 25.0524 53.1998 24.6965C53.8953 24.4985 54.592 24.2956 55.2681 24.0429C55.5623 23.9324 55.8736 23.7417 56.0608 23.4987C56.4147 23.0408 56.5812 22.4759 56.5825 21.8965C56.5849 21.2526 56.2675 20.7206 55.611 20.4618C55.4687 20.4059 55.3289 20.344 55.183 20.3015C54.5397 20.1156 53.8953 19.9358 53.1439 19.7232C53.1439 20.4096 53.1548 20.9757 53.1403 21.5417C53.1293 21.956 53.0916 22.3702 53.0527 22.7832C53.0102 23.2291 52.615 23.2376 52.3134 23.3189C52.0229 23.3967 51.7943 23.2339 51.6836 22.9606C51.5876 22.7237 51.483 22.4771 51.4611 22.2281C51.3723 21.204 51.3006 20.1776 51.2471 19.1499C51.2179 18.5826 51.0137 18.087 50.7571 17.5925C50.3632 16.8321 50.0069 16.0522 49.6227 15.2869C49.219 14.484 48.8153 13.6798 48.3849 12.8902C48.1028 12.3715 47.7696 11.8807 47.4705 11.3705C47.293 11.0693 47.1666 10.7352 46.9647 10.4534C46.1562 9.32728 45.1688 8.3664 44.1232 7.46261C43.7912 7.17593 43.4897 6.84794 43.1359 6.59284C42.6957 6.277 42.196 6.04255 41.7546 5.72793C40.8853 5.1084 39.9891 4.58362 38.8802 4.53017C38.5848 4.51559 38.3805 4.54717 38.2078 4.80713C37.7628 5.47647 37.3616 6.15066 37.5306 7.00707C37.5513 7.11276 37.5464 7.22938 37.5245 7.33628C37.4139 7.89021 36.8387 8.14288 36.3633 7.83797C35.9913 7.59988 35.7761 7.24638 35.7335 6.80421C35.6204 5.63803 35.6897 4.50223 36.3585 3.51827C35.967 3.31297 35.6241 3.06638 35.2411 2.94368C34.2465 2.62542 33.2263 2.38489 32.2317 2.06905C31.2481 1.75686 30.234 1.76293 29.2272 1.65846C28.6655 1.60015 28.2521 1.73742 27.8849 2.13344C27.5882 2.45292 27.1724 2.70802 26.9924 3.07974C26.6119 3.86448 26.3735 4.71117 26.2337 5.58337C26.134 6.20533 26.0294 6.86859 25.2038 6.98521C24.5947 6.69124 24.5606 6.69974 24.4172 6.1203C24.3175 5.72064 24.3284 5.29426 24.2846 4.88124C24.2676 4.71481 24.2396 4.5496 24.2165 4.38926C23.2681 4.25928 22.4085 4.45971 21.5343 4.54839C20.7196 4.63099 20.0144 4.97599 19.3055 5.2894C17.8732 5.9235 16.8628 7.07753 16.0178 8.34939C15.1715 9.62246 14.4055 10.9502 13.6358 12.2731C13.3853 12.7031 13.2017 13.1793 13.0485 13.6543C12.8212 14.3625 12.6436 15.0877 12.454 15.8081C12.1536 16.9475 11.8132 18.0797 11.581 19.2337C11.3767 20.2444 11.2989 21.2794 11.1615 22.3034C11.1469 22.4127 11.1213 22.5208 11.0934 22.6265C10.9803 23.0541 10.6666 23.2145 10.2581 23.2473C9.9018 23.2764 9.70118 23.1671 9.53947 22.7116C9.37046 22.239 9.27318 21.741 9.13457 21.215ZM24.0135 77.3541C23.9685 77.5934 23.8968 77.8012 23.8968 78.0101C23.8943 78.9516 23.9113 79.8942 23.9247 80.8357C23.9345 81.5791 23.96 82.3213 23.9576 83.0648C23.9527 84.0961 23.9211 85.1274 23.9138 86.1575C23.8968 88.7547 23.8724 91.3507 23.8822 93.9478C23.887 95.1881 23.825 96.4381 24.1424 97.7015C27.0058 97.501 29.8656 97.3006 32.7546 97.0977C32.7643 97.0333 32.7971 96.9471 32.7862 96.8657C32.6974 96.1927 32.6074 95.5197 32.5041 94.848C32.4238 94.3293 32.3205 93.8142 32.2354 93.2955C32.0822 92.365 31.9411 91.4333 31.7843 90.504C31.5654 89.2078 31.3587 87.9105 31.0997 86.6216C31.0122 86.1831 30.7824 85.7725 30.6182 85.3485C29.6309 84.7338 29.1689 83.66 28.4406 82.8194C27.8217 82.1051 27.3438 81.2657 26.8307 80.4639C26.1073 79.3366 25.0531 78.5009 24.2263 77.4671C24.191 77.4234 24.1205 77.4076 24.0135 77.3517V77.3541ZM16.2208 98.287C16.25 98.0209 16.3035 97.7622 16.2998 97.5034C16.2938 97.0018 16.2342 96.5001 16.2354 95.9996C16.239 94.424 16.2731 92.8497 16.2707 91.2741C16.267 89.565 16.2403 87.8558 16.2159 86.1466C16.1843 83.9928 16.1637 81.8378 16.0968 79.6853C16.081 79.1605 16.2719 78.6078 15.946 78.0089C15.2457 78.9759 14.5623 79.876 13.924 80.8065C12.8309 82.4039 11.643 83.9127 10.1097 85.1177C9.73887 85.4092 9.56743 85.7712 9.5723 86.2559C9.58324 87.4986 9.57837 88.7426 9.53825 89.9853C9.50542 90.9899 9.40572 91.9921 9.34614 92.9967C9.27197 94.2467 9.18686 95.4979 9.14916 96.7491C9.12971 97.3978 9.19901 98.0501 9.22941 98.7462C11.5943 98.5907 13.8814 98.44 16.222 98.2858L16.2208 98.287ZM18.0653 74.039C18.1371 82.1427 17.9839 90.1153 18.255 98.14C19.4478 98.0477 20.5932 97.959 21.7665 97.8679C21.8176 97.2277 21.9112 96.6167 21.9076 96.0057C21.8954 94.1179 21.8431 92.2314 21.8115 90.3436C21.7835 88.7 21.7604 87.0553 21.7385 85.4117C21.7081 83.1073 21.6449 80.8016 21.6692 78.4972C21.6826 77.2971 21.5379 76.0701 22.0097 74.9027C21.8711 74.6962 21.7373 74.4946 21.6011 74.2954C21.2145 73.7305 21.1573 73.7123 20.5117 73.8495C20.3451 73.8848 20.1713 73.8848 19.9998 73.8981C19.3748 73.9455 18.7499 73.9905 18.0629 74.0403L18.0653 74.039ZM46.8188 74.2358C46.9514 74.5444 47.1301 74.7764 47.1398 75.0145C47.169 75.7312 47.1483 76.4516 47.1179 77.1695C47.0766 78.1316 46.989 79.0913 46.955 80.0534C46.9185 81.0786 46.9404 82.1051 46.9027 83.1291C46.8468 84.6816 46.7677 86.2329 46.6863 87.7841C46.6085 89.2649 46.5185 90.7457 46.4285 92.2265C46.3568 93.4109 46.2729 94.5953 46.2109 95.7797C46.1987 96.0166 46.2388 96.2607 46.285 96.4952C46.3689 96.9277 46.4784 97.0078 46.9185 96.9738C47.5946 96.9228 48.2694 96.8645 48.9442 96.8013C49.0244 96.794 49.0998 96.7382 49.2384 96.6786C49.3102 95.6169 49.3868 94.5479 49.4524 93.4789C49.5047 92.6274 49.5473 91.7746 49.5874 90.9219C49.6239 90.1553 49.6446 89.3888 49.681 88.6235C49.7175 87.8558 49.7576 87.0881 49.8087 86.3203C49.8598 85.5745 49.9327 84.8286 49.9862 84.0827C50.0178 83.6491 50.013 83.2117 50.0519 82.7793C50.1382 81.8208 50.2452 80.8648 50.3388 79.9076C50.4422 78.8641 50.5297 77.8194 50.6452 76.7771C50.7036 76.2548 50.813 75.7385 50.8909 75.2174C50.9735 74.6671 50.5796 74.169 50.0373 74.1496C49.5315 74.1314 49.0244 74.1144 48.5186 74.1289C47.9545 74.1447 47.3915 74.197 46.8152 74.2346L46.8188 74.2358ZM44.3724 76.9508C44.2642 77.0091 44.2119 77.0189 44.1937 77.0492C43.7864 77.7174 43.3693 78.3794 42.9827 79.0597C42.3966 80.091 41.7461 81.0713 40.9667 81.9702C40.4378 82.5813 39.9004 83.2093 40.208 84.1265C40.2335 84.2042 40.197 84.3002 40.197 84.3888C40.2031 85.6158 40.2226 86.8439 40.2129 88.0708C40.208 88.66 40.163 89.2491 40.1095 89.8359C39.9369 91.7333 39.5769 93.615 39.6025 95.5307C39.611 96.1575 39.6037 96.7843 39.6037 97.5022C40.9801 97.3868 42.2653 97.2799 43.5663 97.1718C43.6952 96.7965 43.8909 96.4515 43.9213 96.0931C43.9943 95.2221 44.0016 94.3438 44.0125 93.468C44.0247 92.5472 43.9979 91.6252 44.0125 90.7032C44.0223 90.0448 44.0806 89.3888 44.0964 88.7304C44.1195 87.7477 44.1122 86.7649 44.1414 85.7822C44.1597 85.1493 44.2326 84.5176 44.2545 83.8847C44.2849 83.0101 44.2837 82.1355 44.308 81.2608C44.3457 79.9489 44.3968 78.6381 44.4381 77.3274C44.4417 77.2229 44.404 77.1173 44.3761 76.9508H44.3724ZM42.1011 74.9562C41.4944 73.5373 41.5662 71.9922 41.4373 70.4737C40.7795 70.6207 40.2092 70.7859 39.628 70.8709C38.4121 71.0507 37.257 71.5524 36.0059 71.5354C34.5589 71.5148 33.1108 71.5427 31.6675 71.4783C30.4796 71.4249 29.3197 71.1661 28.1962 70.7519C27.9031 70.6438 27.5663 70.6547 27.2125 70.6049C27.2125 70.8588 27.1858 71.0349 27.2174 71.2001C27.3742 72.0165 27.5675 72.8267 27.7037 73.6467C27.7645 74.0135 27.9554 74.2492 28.2387 74.4302C28.8309 74.808 29.4157 75.1967 30.1379 75.3097C30.5051 75.3668 30.859 75.5016 31.2201 75.5964C32.008 75.8029 32.7874 76.0811 33.5887 76.194C34.7194 76.3532 35.8636 76.3629 36.9992 76.1175C37.4005 76.0313 37.8297 76.0786 38.2443 76.0398C39.0529 75.9644 39.8663 75.9122 40.6652 75.7737C41.2014 75.6802 41.7315 75.4846 42.1036 74.9562H42.1011ZM9.46894 104.119C9.62823 104.147 9.69267 104.171 9.7559 104.166C11.1992 104.052 12.64 103.917 14.0845 103.825C14.7763 103.78 15.4682 103.77 16.1612 103.701C17.0695 103.61 17.9887 103.631 18.9006 103.572C20.1494 103.491 21.3957 103.383 22.6432 103.282C24.191 103.157 25.7401 103.031 27.2879 102.902C27.7451 102.864 28.2047 102.833 28.6582 102.766C29.7768 102.601 30.8955 102.456 32.0299 102.484C32.3326 102.491 32.6378 102.46 32.9406 102.429C33.1655 102.407 33.3321 102.267 33.3127 102.041C33.2579 101.392 33.1716 100.746 33.0962 100.091C32.5637 100.091 32.1041 100.067 31.6469 100.097C31.0766 100.135 30.5112 100.244 29.9398 100.276C29.0035 100.327 28.0624 100.319 27.1262 100.376C26.2337 100.431 25.3449 100.549 24.4524 100.618C23.577 100.685 22.6991 100.732 21.8212 100.775C21.4492 100.793 21.0747 100.758 20.7038 100.781C19.9183 100.828 19.1341 100.895 18.3511 100.959C17.5644 101.024 16.7801 101.054 15.9874 101.051C15.1593 101.047 14.3325 101.24 13.5021 101.309C12.2777 101.411 11.052 101.492 9.82642 101.557C9.51028 101.574 9.38383 101.697 9.39356 101.994C9.41788 102.693 9.44341 103.39 9.47016 104.118L9.46894 104.119ZM55.7544 101.888C55.9453 101.304 55.8979 100.206 55.6754 99.7471C55.5672 99.5248 55.414 99.4495 55.1465 99.4738C53.9731 99.5807 52.7986 99.6645 51.6228 99.7386C50.7997 99.7909 49.9753 99.82 49.1497 99.8455C47.5775 99.8941 46.0054 99.9403 44.4332 99.9731C42.9632 100.005 41.492 100.016 40.022 100.042C39.6304 100.05 39.425 100.192 39.4189 100.585C39.4091 101.275 39.476 101.967 39.5125 102.711C40.4864 102.642 41.3582 102.559 42.2337 102.522C43.4289 102.471 44.6314 102.519 45.8194 102.406C47.2359 102.271 48.6463 102.167 50.0713 102.178C51.5134 102.188 52.9567 102.075 54.3987 102.004C54.8547 101.982 55.3094 101.926 55.752 101.888H55.7544ZM53.0722 78.7985C53.0029 78.9916 52.953 79.067 52.953 79.1411C52.9567 79.9683 52.9943 80.7968 52.9725 81.6228C52.936 83.0235 52.8849 84.4241 52.7998 85.8235C52.7414 86.7783 52.6138 87.7294 52.5189 88.6818C52.5056 88.813 52.508 88.9454 52.5019 89.0766C52.4581 90.1043 52.4302 91.1332 52.3657 92.1609C52.2818 93.4874 52.1639 94.8115 52.0739 96.1381C52.0508 96.4879 52.1955 96.6361 52.5335 96.6337C53.15 96.6288 53.7664 96.6179 54.3817 96.5815C54.6346 96.5669 54.8826 96.4794 55.1051 96.4308C55.1258 96.3142 55.1441 96.2692 55.1404 96.2279C55.0614 95.2112 54.9532 94.1944 54.9057 93.1765C54.862 92.2374 54.8656 91.296 54.8766 90.3558C54.8911 89.0912 54.9398 87.8278 54.958 86.5645C54.9677 85.8891 54.9313 85.2125 54.9373 84.5358C54.9446 83.7887 54.9896 83.0429 54.9884 82.2958C54.9884 82.0893 54.9094 81.867 54.8109 81.6811C54.5422 81.177 54.2504 80.685 53.9561 80.1967C53.6898 79.7557 53.4065 79.3245 53.0734 78.7973L53.0722 78.7985Z" fill="black"/>
<path d="M39.482 55.3984C38.9069 55.3535 38.3731 55.4325 37.8442 55.7289C37.1463 56.1212 36.4472 56.5087 35.6131 56.6399C34.3145 56.844 33.0414 57.2024 31.7477 57.4332C30.5829 57.6409 29.4071 57.7138 28.2156 57.5789C26.8428 57.4235 25.4603 57.3433 24.0815 57.2364C23.9307 57.2242 23.7739 57.2473 23.6231 57.2692C23.1355 57.3396 22.9799 57.4757 22.8997 57.8814C22.8437 58.1693 23.0626 58.5908 23.3921 58.7305C23.8566 58.9261 24.3283 59.1144 24.8135 59.2492C25.4907 59.4387 26.1814 59.5821 26.8683 59.7327C28.5317 60.0984 30.2121 60.2004 31.9082 60.0328C32.4517 59.9793 32.9989 59.9611 33.5412 59.9028C34.3911 59.8129 35.2398 59.7048 36.0873 59.6003C36.2599 59.5784 36.4326 59.5469 36.6016 59.5056C37.2971 59.3331 37.9938 59.1618 38.6868 58.9784C39.1744 58.8484 39.6681 58.7281 40.1411 58.5544C41.1223 58.1948 41.5284 56.912 40.9885 56.0313C40.7368 55.6207 40.3186 55.5673 39.9331 55.4349C39.7945 55.3875 39.6328 55.4069 39.4808 55.3972L39.482 55.3984Z" fill="black"/>
<path d="M51.5534 27.5999C51.4793 28.1709 51.4902 28.7029 51.6434 29.2326C51.8453 29.931 52.0447 30.6295 52.0653 31.4604C52.0982 32.7529 52.2343 34.0236 52.2854 35.3137C52.3304 36.4738 52.2878 37.6448 52.1079 38.828C51.9 40.1922 51.7407 41.5661 51.5656 42.9363C51.5461 43.087 51.5486 43.2424 51.5522 43.3931C51.5607 43.8778 51.6373 44.0357 51.8963 44.1183C52.0799 44.1766 52.373 43.9628 52.4885 43.636C52.6526 43.1756 52.8119 42.7079 52.9371 42.2281C53.1134 41.5564 53.2606 40.8712 53.4125 40.1885C53.7797 38.5377 53.9767 36.8674 53.9974 35.1788C54.0047 34.6383 54.0351 34.094 54.0387 33.5535C54.046 32.7068 54.0412 31.8625 54.0387 31.017C54.0387 30.8445 54.0302 30.6733 54.0168 30.5044C53.9585 29.8108 53.9001 29.1172 53.8332 28.426C53.7858 27.9388 53.7457 27.4481 53.6691 26.9755C53.5098 25.9952 52.7037 25.5798 52.086 26.1082C51.7978 26.3548 51.731 26.7702 51.6154 27.1517C51.5741 27.2889 51.5741 27.4505 51.5559 27.6011L51.5534 27.5999Z" fill="black"/>
<path d="M38.4558 37.5109C38.7002 37.5303 38.9458 37.5571 39.1902 37.568C39.7349 37.5899 40.2796 37.6299 40.8231 37.6142C42.0743 37.5789 43.3339 37.5862 44.5729 37.4356C45.3122 37.3457 45.5724 36.7541 45.3548 36.1564C45.2161 35.7762 44.8562 35.6098 44.5048 35.5308C43.7984 35.3729 43.0786 35.2733 42.3637 35.1579C41.791 35.0656 41.2171 34.9696 40.6407 34.904C40.0267 34.8336 39.4102 34.7655 38.7938 34.7558C38.1481 34.7461 37.7007 35.0959 37.4368 35.6815C37.4295 35.6973 37.4393 35.7252 37.4295 35.7349C37.0465 36.0969 37.2374 36.4662 37.4563 36.793C37.6654 37.1052 37.8952 37.438 38.3512 37.4259C38.3865 37.4259 38.4229 37.438 38.4582 37.4441C38.457 37.4672 38.4558 37.4903 38.4545 37.5133L38.4558 37.5109Z" fill="black"/>
<path d="M30.0346 48.433C30.6353 48.6529 31.1934 48.8436 31.7405 49.0659C31.9995 49.1716 32.2402 49.3052 32.3667 49.6089C32.6561 50.3098 32.346 50.9026 31.5946 50.9949C31.0706 51.0593 30.5526 51.0812 30.0443 50.8492C29.8109 50.7423 29.5288 50.7447 29.2735 50.6803C28.1561 50.3985 27.4897 49.5421 27.9518 48.2277C28.4138 46.9182 28.6497 45.5564 28.685 44.1631C28.6935 43.8351 28.7069 43.5047 28.7494 43.1803C28.8224 42.6325 29.2662 42.2389 29.7671 42.2462C30.2012 42.2535 30.6511 42.7005 30.6596 43.2314C30.6705 43.9991 30.673 44.7741 30.5745 45.5333C30.4626 46.3995 30.2352 47.251 30.0601 48.1099C30.0431 48.1925 30.0456 48.2799 30.0346 48.4318V48.433Z" fill="black"/>
<path d="M20.7791 35.2395C21.3202 35.3428 21.7786 35.5942 22.0412 36.1433C22.3743 36.8418 21.9816 37.748 21.2448 38.0116C20.4654 38.291 19.6787 38.1586 18.8981 38.0881C18.0494 38.0116 17.2019 37.8877 16.363 37.731C16.0286 37.669 15.7015 37.4965 15.4036 37.3192C15.0376 37.103 14.9744 36.7252 15.0376 36.3328C15.0948 35.9805 15.3136 35.7521 15.648 35.6222C16.6681 35.2261 17.7394 35.146 18.8166 35.1059C18.9248 35.1022 19.0452 35.1448 19.1425 35.1132C19.6994 34.9285 20.2295 35.05 20.7791 35.2371V35.2395Z" fill="black"/>
<path d="M53.606 46.2074C53.2072 51.4759 52.778 53.7973 52.4898 52.7526C52.3184 52.1318 52.1944 51.0106 52.0582 50.0242C51.8977 48.8629 51.7481 47.608 51.5937 46.3884C51.4235 45.034 51.5183 41.5913 51.8174 38.3467C52.0643 35.6572 52.609 32.8669 52.8363 33.2799C53.3653 34.2408 53.5914 37.9094 53.7167 42.3688C53.7471 43.4317 53.6267 45.5417 53.606 46.2074Z" fill="black"/>
<path d="M40.1046 38.4999C40.6335 38.4901 41.3168 39.1886 41.2913 39.7413C41.2645 40.305 41.1077 40.8043 40.5739 41.1262C40.3465 41.2634 40.1471 41.329 39.9027 41.2246C39.8419 41.1991 39.7824 41.1723 39.7216 41.1468C39.4504 41.029 39.0686 40.9841 38.9349 40.7775C38.761 40.5091 38.7172 40.1094 38.7391 39.7741C38.7817 39.117 39.4759 38.5108 40.1046 38.4999Z" fill="black"/>
<path d="M19.2629 39.5371C19.8454 39.5335 20.3998 40.1008 20.3913 40.6912C20.3852 41.1139 19.7979 41.7638 19.4101 41.7747C18.7596 41.7942 18.1857 41.3119 18.1942 40.7531C18.2051 40.0303 18.6355 39.542 19.2642 39.5371H19.2629Z" fill="black"/>
</svg>
